<svg width="160" height="160" viewBox="0 0 160 160" fill="none" xmlns="http://www.w3.org/2000/svg">
<rect width="160" height="160" fill="white"/>
<path d="M0 0H160V160H0V0Z" fill="#7F977B" fill-opacity="0.4"/>
<path opacity="0.3" d="M59.7272 64.5454L59.5454 64.7272V96.3636H100.273C100.341 96.3181 100.409 96.2272 100.454 96.1818V64.7272L100.273 64.5454H59.7272ZM64.0909 91.8181L72.0454 81.5909L77.7272 88.4318L85.6818 78.1818L95.909 91.8181H64.0909Z" fill="#444444" fill-opacity="0.3"/>
<path d="M100.455 60H59.5455C57.2727 60 55 62.2727 55 64.5455V96.3636C55 98.8636 57.0455 100.909 59.5455 100.909H100.455C102.727 100.909 105 98.6364 105 96.3636V64.5455C105 62.2727 102.727 60 100.455 60ZM100.455 96.1818C100.409 96.25 100.318 96.3182 100.273 96.3636H59.5455V64.7273L59.7273 64.5455H100.25C100.318 64.5909 100.386 64.6818 100.432 64.7273V96.1818H100.455ZM77.7273 88.4318L72.0455 81.5909L64.0909 91.8182H95.9091L85.6818 78.1818L77.7273 88.4318Z" fill="white" fill-opacity="0.5"/>
</svg>
